<?xml version="1.0" encoding="UTF-8" standalone="no"?>
<!DOCTYPE svg PUBLIC "-//W3C//DTD SVG 1.1//EN" "http://www.w3.org/Graphics/SVG/1.1/DTD/svg11.dtd">
<svg width="100%" height="100%" viewBox="0 0 800 800" version="1.1" xmlns="http://www.w3.org/2000/svg" xmlns:xlink="http://www.w3.org/1999/xlink" xml:space="preserve" xmlns:serif="http://www.serif.com/" style="fill-rule:evenodd;clip-rule:evenodd;stroke-linejoin:round;stroke-miterlimit:2;">
    <g transform="matrix(43.285764,0,0,43.285764,-121.785301,-120.929169)">
        <path d="M4.299,16.446L4.299,7.554L12,3.108L19.701,7.554L19.701,16.446L12,20.892L4.299,16.446Z" style="fill:white;"/>
    </g>
    <g transform="matrix(1.562494,0,0,1.562494,0,0)">
        <circle cx="255.904" cy="110.808" r="26.564" style="fill:rgb(138,86,255);"/>
        <circle cx="255.904" cy="398.616" r="26.564" style="fill:rgb(138,86,255);"/>
        <circle cx="132.625" cy="180.472" r="26.564" style="fill:rgb(138,86,255);"/>
        <circle cx="379.172" cy="328.952" r="26.564" style="fill:rgb(138,86,255);"/>
        <circle cx="420.692" cy="161.479" r="26.564" style="fill:rgb(138,86,255);"/>
        <circle cx="132.053" cy="327.982" r="26.564" style="fill:rgb(138,86,255);"/>
    </g>
    <g transform="matrix(1.562494,0,0,1.562494,0,0)">
        <path d="M397.831,175.005C393.615,167.879 393.111,159.586 395.741,152.369L282.075,115.317C279.933,127.84 269.034,137.375 255.899,137.375C244.852,137.375 235.381,130.63 231.376,121.033L154.506,165.414C160.226,173.735 160.93,184.965 155.381,194.179C149.324,204.236 137.662,208.833 126.803,206.393L126.803,301.945C137.572,299.776 149.001,304.472 154.911,314.46C160.856,324.507 159.417,336.869 152.222,345.267L230.597,390.517C234.023,379.807 244.053,372.052 255.9,372.052C267.783,372.052 277.839,379.854 281.235,390.614L358.707,345.886C351.717,337.437 350.441,325.173 356.419,315.248C363.559,303.392 378.489,299.119 390.708,305.026L416.01,187.62C408.671,186.3 401.925,181.925 397.831,175.005Z" style="fill:rgb(50,233,63);fill-rule:nonzero;"/>
    </g>
    <g transform="matrix(1.562494,0,0,1.562494,0,0)">
        <path d="M397.831,175.004C393.615,167.878 393.111,159.585 395.741,152.368L390.494,150.657L356.418,315.246C363.558,303.39 378.488,299.117 390.707,305.024L416.009,187.618C408.671,186.3 401.925,181.925 397.831,175.004Z" style="fill:rgb(45,155,10);fill-rule:nonzero;"/>
        <path d="M281.235,390.614L358.707,345.886C351.717,337.437 350.441,325.173 356.419,315.248L269.161,375.618C274.853,378.907 279.222,384.232 281.235,390.614Z" style="fill:rgb(45,155,10);fill-rule:nonzero;"/>
    </g>
    <g transform="matrix(1.562494,0,0,1.562494,0,0)">
        <path d="M477.719,383.968C477.726,383.957 477.733,383.949 477.738,383.939C477.891,383.668 478.023,383.391 478.142,383.111C478.169,383.047 478.19,382.981 478.216,382.916C478.312,382.673 478.396,382.43 478.466,382.183C478.489,382.104 478.51,382.025 478.531,381.945C478.599,381.676 478.654,381.406 478.694,381.134C478.702,381.087 478.711,381.039 478.718,380.992C478.76,380.662 478.783,380.332 478.784,380.002C478.784,379.988 478.787,379.973 478.787,379.959L478.787,132.043C478.787,132.011 478.781,131.98 478.781,131.949C478.774,131.303 478.689,130.657 478.524,130.02C478.505,129.945 478.481,129.87 478.459,129.796C478.391,129.561 478.311,129.328 478.22,129.096C478.187,129.011 478.154,128.926 478.119,128.843C478.014,128.602 477.897,128.364 477.767,128.129C477.739,128.078 477.716,128.027 477.687,127.977C477.68,127.965 477.675,127.953 477.669,127.941C477.511,127.673 477.337,127.419 477.154,127.176C477.113,127.122 477.068,127.071 477.026,127.019C476.862,126.812 476.691,126.616 476.511,126.429C476.456,126.372 476.4,126.316 476.343,126.26C476.14,126.063 475.93,125.876 475.71,125.703C475.675,125.676 475.644,125.647 475.61,125.621C475.344,125.418 475.067,125.233 474.78,125.066C474.768,125.06 474.758,125.05 474.747,125.043L260.044,1.085C260.024,1.073 260.002,1.066 259.983,1.055C259.696,0.892 259.4,0.743 259.093,0.616C259.075,0.608 259.055,0.603 259.037,0.596C258.759,0.484 258.473,0.389 258.181,0.307C258.101,0.284 258.023,0.265 257.943,0.246C257.703,0.187 257.459,0.139 257.212,0.102C257.13,0.089 257.048,0.074 256.966,0.064C256.646,0.025 256.327,0 256.001,0C255.675,0 255.354,0.025 255.038,0.063C254.956,0.073 254.874,0.088 254.792,0.101C254.544,0.139 254.3,0.186 254.06,0.245C253.98,0.264 253.902,0.284 253.822,0.306C253.53,0.388 253.243,0.483 252.965,0.595C252.947,0.603 252.928,0.608 252.91,0.615C252.602,0.742 252.306,0.891 252.019,1.054C251.999,1.066 251.977,1.072 251.958,1.084L123.932,75C120.066,77.232 118.741,82.177 120.973,86.043C123.206,89.91 128.151,91.236 132.016,89.002L247.917,22.086L247.917,77.101C232.65,80.717 221.252,94.453 221.252,110.811C221.252,112.994 221.464,115.127 221.852,117.199L156.214,155.096C154.495,153.499 152.589,152.052 150.501,150.795C142.573,146.02 133.261,144.619 124.278,146.849C116.318,148.826 109.466,153.449 104.685,159.993L57.347,132.114L103.596,105.412C107.462,103.18 108.787,98.235 106.555,94.369C104.322,90.503 99.377,89.178 95.512,91.41L37.257,125.044C37.244,125.052 37.233,125.061 37.22,125.068C36.935,125.234 36.659,125.418 36.395,125.62C36.357,125.649 36.323,125.68 36.286,125.709C36.069,125.88 35.862,126.064 35.663,126.258C35.604,126.315 35.547,126.373 35.489,126.432C35.31,126.617 35.141,126.812 34.979,127.016C34.936,127.07 34.89,127.122 34.847,127.177C34.664,127.421 34.49,127.673 34.332,127.941C34.326,127.953 34.32,127.965 34.314,127.977C34.285,128.027 34.262,128.079 34.234,128.129C34.104,128.364 33.986,128.601 33.882,128.843C33.845,128.927 33.814,129.012 33.781,129.096C33.69,129.327 33.611,129.56 33.542,129.796C33.52,129.871 33.497,129.945 33.477,130.02C33.312,130.658 33.228,131.305 33.22,131.949C33.22,131.98 33.214,132.012 33.214,132.043L33.214,379.959C33.214,379.973 33.217,379.987 33.217,380.002C33.218,380.332 33.241,380.663 33.283,380.993C33.289,381.04 33.299,381.086 33.306,381.133C33.346,381.406 33.401,381.676 33.47,381.947C33.49,382.027 33.511,382.105 33.534,382.184C33.605,382.431 33.689,382.677 33.785,382.919C33.81,382.983 33.831,383.048 33.858,383.112C33.977,383.392 34.109,383.669 34.262,383.94C34.267,383.951 34.276,383.959 34.281,383.97C34.42,384.214 34.581,384.445 34.744,384.673C34.955,384.967 35.183,385.242 35.425,385.501C35.475,385.554 35.517,385.613 35.568,385.665C35.783,385.881 36.012,386.075 36.246,386.262C36.288,386.295 36.324,386.334 36.366,386.367C36.625,386.566 36.896,386.743 37.174,386.908C37.201,386.924 37.225,386.945 37.252,386.96L37.26,386.964C37.273,386.972 37.287,386.979 37.3,386.987L251.957,510.92C251.977,510.932 251.999,510.939 252.02,510.951C252.307,511.114 252.603,511.261 252.91,511.39C252.928,511.398 252.947,511.403 252.965,511.41C253.243,511.523 253.53,511.617 253.822,511.699C253.902,511.722 253.98,511.741 254.06,511.76C254.299,511.819 254.543,511.867 254.791,511.904C254.873,511.917 254.955,511.932 255.038,511.942C255.354,511.98 255.674,512.005 255.999,512.005C256.325,512.005 256.645,511.98 256.96,511.942C257.043,511.932 257.124,511.917 257.207,511.904C257.455,511.866 257.699,511.819 257.938,511.76C258.018,511.741 258.096,511.721 258.176,511.699C258.468,511.617 258.755,511.523 259.033,511.41C259.051,511.402 259.07,511.397 259.088,511.39C259.395,511.263 259.692,511.114 259.978,510.951C259.998,510.939 260.02,510.932 260.041,510.92L474.697,386.988C474.709,386.982 474.721,386.974 474.733,386.968L474.743,386.963C474.779,386.942 474.81,386.916 474.845,386.894C475.114,386.733 475.377,386.562 475.629,386.37C475.68,386.331 475.723,386.286 475.771,386.246C475.997,386.064 476.22,385.876 476.427,385.668C476.492,385.603 476.544,385.53 476.607,385.463C476.836,385.217 477.051,384.957 477.25,384.68C477.417,384.446 477.579,384.213 477.719,383.968ZM49.383,146.185L98.411,175.06C96.29,188.577 102.326,202.673 114.751,210.155C116.044,210.934 117.372,211.609 118.72,212.201L118.72,296.003C117.248,296.621 115.805,297.337 114.407,298.164C106.441,302.877 100.789,310.409 98.488,319.374C96.883,325.63 97.05,332.061 98.897,338.083L49.384,366.096L49.384,146.185L49.383,146.185ZM151.332,209.633C151.904,209.265 152.466,208.882 153.017,208.48C153.101,208.42 153.184,208.358 153.267,208.297C153.5,208.123 153.739,207.959 153.969,207.78L239.832,258.348L157.782,304.769C153.799,300.337 148.742,297.029 143.013,295.126C142.965,295.11 142.916,295.093 142.866,295.076C142.272,294.882 141.671,294.701 141.063,294.537C141.02,294.525 140.977,294.512 140.934,294.5C140.842,294.476 140.753,294.446 140.661,294.422C139.428,294.106 138.188,293.865 136.947,293.685C136.941,293.684 136.934,293.684 136.927,293.682C136.252,293.585 135.577,293.511 134.903,293.453C134.899,293.453 134.893,293.452 134.889,293.452L134.889,215.053C140.757,214.674 146.396,212.791 151.297,209.653C151.308,209.649 151.32,209.642 151.332,209.633ZM430.103,177.384C425.968,179.83 421.262,180.455 416.893,179.533C416.518,179.454 416.145,179.371 415.778,179.27C415.52,179.199 415.265,179.116 415.011,179.034C414.662,178.921 414.316,178.801 413.975,178.669C413.727,178.573 413.482,178.47 413.239,178.363C412.896,178.212 412.559,178.049 412.226,177.878C412.003,177.763 411.781,177.647 411.562,177.523C411.215,177.326 410.879,177.114 410.546,176.896C410.355,176.771 410.163,176.649 409.977,176.518C409.627,176.269 409.29,176.001 408.957,175.728C408.802,175.6 408.641,175.479 408.49,175.346C408.143,175.041 407.815,174.714 407.491,174.383C407.367,174.256 407.237,174.139 407.116,174.008C406.782,173.647 406.473,173.262 406.166,172.873C406.07,172.751 405.965,172.64 405.873,172.515C405.501,172.015 405.154,171.494 404.831,170.953C404.817,170.93 404.801,170.91 404.787,170.886C404.778,170.872 404.773,170.857 404.764,170.844C404.435,170.286 404.14,169.713 403.875,169.131C403.779,168.92 403.705,168.703 403.617,168.49C403.457,168.103 403.298,167.716 403.166,167.322C403.075,167.051 403.006,166.777 402.929,166.504C402.833,166.164 402.736,165.825 402.66,165.481C402.591,165.169 402.539,164.856 402.486,164.542C402.434,164.237 402.386,163.931 402.35,163.623C402.31,163.281 402.283,162.94 402.263,162.598C402.246,162.319 402.236,162.04 402.232,161.759C402.227,161.398 402.229,161.038 402.245,160.678C402.257,160.415 402.281,160.151 402.303,159.888C402.335,159.52 402.369,159.153 402.423,158.789C402.462,158.527 402.518,158.267 402.569,158.006C402.638,157.646 402.702,157.285 402.791,156.929C402.868,156.627 402.971,156.331 403.063,156.032C404.369,151.794 407.173,148.003 411.282,145.572C414.17,143.864 417.39,142.989 420.66,142.989C422.2,142.989 423.752,143.183 425.284,143.576C430.066,144.803 434.083,147.819 436.595,152.066C441.788,160.838 438.874,172.195 430.103,177.384ZM445.627,137.427C434.74,126.141 417.123,123.332 403.052,131.657C398.319,134.457 394.502,138.219 391.689,142.544L290.518,109.565C289.957,93.832 278.863,80.742 264.085,77.147L264.085,22.086L454.654,132.111L445.627,137.427ZM264.085,144.473C264.404,144.395 264.722,144.313 265.038,144.226C274.847,141.564 283,134.723 287.29,125.518L386.239,157.773C386.198,158.152 386.189,158.533 386.161,158.912C386.142,159.176 386.121,159.441 386.107,159.706C386.083,160.165 386.063,160.624 386.057,161.084C386.049,161.66 386.056,162.235 386.078,162.812C386.093,163.217 386.121,163.62 386.151,164.025C386.181,164.441 386.221,164.857 386.266,165.273C386.316,165.724 386.371,166.172 386.437,166.62C386.52,167.174 386.616,167.727 386.726,168.278C386.783,168.561 386.84,168.844 386.905,169.126C387.067,169.84 387.247,170.551 387.456,171.259C387.492,171.38 387.528,171.499 387.565,171.62L321.3,210.646C317.453,212.912 316.171,217.867 318.437,221.714C319.944,224.273 322.641,225.697 325.41,225.697C326.804,225.697 328.217,225.336 329.505,224.577L395.776,185.548C395.861,185.636 395.954,185.715 396.04,185.802C396.461,186.229 396.893,186.643 397.333,187.045C397.516,187.212 397.697,187.38 397.885,187.544C398.359,187.959 398.846,188.355 399.34,188.74C399.507,188.87 399.669,189.007 399.838,189.135C400.491,189.627 401.157,190.098 401.84,190.539C401.899,190.578 401.961,190.612 402.021,190.651C402.654,191.054 403.297,191.436 403.953,191.796C404.27,191.971 404.596,192.129 404.92,192.294C405.311,192.493 405.704,192.693 406.101,192.877C406.255,192.948 406.402,193.032 406.557,193.102L384.66,294.707C374.945,293.114 365.064,295.78 357.458,301.933C357.298,302.062 357.14,302.193 356.983,302.324C356.615,302.632 356.249,302.943 355.892,303.268C355.461,303.659 355.04,304.064 354.629,304.477C354.519,304.589 354.404,304.694 354.295,304.807L272.169,258.348L301.213,241.242C305.06,238.976 306.342,234.021 304.076,230.173C301.81,226.326 296.855,225.043 293.007,227.31L264.085,244.345L264.085,144.473ZM255.9,417.096C245.71,417.096 237.42,408.806 237.42,398.616C237.42,396.073 237.936,393.65 238.87,391.444C238.88,391.421 238.89,391.401 238.9,391.378C239.124,390.854 239.37,390.342 239.639,389.845C239.653,389.819 239.668,389.794 239.681,389.768C241.958,385.612 245.783,382.421 250.377,380.98C250.42,380.967 250.464,380.956 250.507,380.943C250.989,380.795 251.479,380.672 251.977,380.564C252.121,380.533 252.267,380.504 252.412,380.476C252.832,380.395 253.258,380.333 253.688,380.281C253.848,380.262 254.005,380.239 254.166,380.224C254.737,380.17 255.314,380.137 255.899,380.137C256.486,380.137 257.065,380.172 257.639,380.225C257.794,380.239 257.946,380.263 258.1,380.281C258.54,380.334 258.975,380.397 259.405,380.48C259.54,380.506 259.673,380.533 259.807,380.561C260.327,380.673 260.84,380.801 261.342,380.957C261.362,380.964 261.384,380.968 261.405,380.975C266.593,382.597 270.804,386.451 272.913,391.406C272.917,391.417 272.924,391.428 272.928,391.439C273.863,393.647 274.38,396.073 274.38,398.617C274.38,408.806 266.09,417.096 255.9,417.096ZM116.144,337.395C113.63,333.147 112.922,328.174 114.149,323.393C115.376,318.611 118.391,314.594 122.639,312.08C124.418,311.028 126.323,310.295 128.288,309.884C128.326,309.878 128.362,309.875 128.4,309.868C129.345,309.677 130.293,309.564 131.236,309.523C131.278,309.521 131.321,309.52 131.364,309.519C131.781,309.504 132.197,309.503 132.612,309.516C132.676,309.518 132.74,309.519 132.804,309.523C133.207,309.539 133.609,309.57 134.008,309.614C134.066,309.621 134.124,309.624 134.184,309.63C134.636,309.683 135.084,309.751 135.529,309.837C135.562,309.843 135.596,309.853 135.629,309.86C136.012,309.935 136.39,310.026 136.766,310.125C137.284,310.262 137.794,310.419 138.294,310.597C138.493,310.669 138.687,310.755 138.885,310.834C139.176,310.949 139.465,311.067 139.747,311.196C140.015,311.319 140.281,311.451 140.542,311.587C140.735,311.686 140.925,311.791 141.113,311.896C141.4,312.058 141.686,312.222 141.965,312.398C142.091,312.479 142.213,312.566 142.337,312.649C142.924,313.042 143.489,313.469 144.03,313.931C144.126,314.013 144.226,314.088 144.32,314.171C144.549,314.374 144.765,314.591 144.985,314.806C145.163,314.982 145.341,315.156 145.511,315.34C145.693,315.534 145.871,315.733 146.046,315.936C146.256,316.181 146.459,316.433 146.657,316.691C146.786,316.858 146.919,317.023 147.043,317.195C147.363,317.641 147.67,318.098 147.953,318.576C148.247,319.073 148.507,319.58 148.749,320.092C148.827,320.256 148.896,320.422 148.968,320.588C149.125,320.947 149.272,321.308 149.405,321.673C149.472,321.856 149.538,322.039 149.598,322.225C149.727,322.617 149.839,323.013 149.941,323.41C149.977,323.549 150.019,323.686 150.051,323.825C150.176,324.368 150.278,324.914 150.353,325.46C150.363,325.533 150.367,325.607 150.376,325.68C150.436,326.167 150.478,326.654 150.5,327.142C150.505,327.263 150.506,327.385 150.51,327.505C150.522,327.976 150.518,328.446 150.493,328.915C150.489,329 150.485,329.085 150.48,329.17C150.367,330.891 150.017,332.588 149.438,334.208C149.42,334.261 149.399,334.313 149.38,334.364C149.204,334.841 149.008,335.311 148.794,335.775C148.758,335.852 148.725,335.928 148.688,336.004C148.464,336.47 148.22,336.928 147.957,337.375C147.929,337.421 147.905,337.47 147.877,337.517C147.589,337.997 147.277,338.464 146.945,338.919C146.858,339.038 146.761,339.151 146.67,339.267C145.278,341.075 143.54,342.66 141.459,343.891C137.211,346.405 132.238,347.113 127.456,345.886C122.676,344.659 118.657,341.644 116.144,337.395ZM166.669,326.803C166.668,326.756 166.668,326.708 166.667,326.661C166.652,326.278 166.625,325.897 166.598,325.515C166.58,325.251 166.561,324.987 166.537,324.723C166.507,324.401 166.471,324.078 166.431,323.757C166.39,323.417 166.342,323.078 166.29,322.739C166.249,322.468 166.209,322.199 166.161,321.93C166.08,321.471 165.985,321.014 165.886,320.556C165.852,320.4 165.823,320.242 165.787,320.086C165.701,319.715 165.599,319.348 165.5,318.979L247.917,272.351L247.917,364.9C239.42,366.894 232.022,372.005 227.176,379.206L163.533,342.462C165.799,337.532 166.851,332.163 166.669,326.803ZM264.085,364.943L264.085,272.351L346.058,318.727C344.203,324.696 344.002,331.076 345.547,337.299C345.866,338.585 346.263,339.838 346.716,341.063C346.725,341.087 346.734,341.112 346.744,341.135C346.981,341.771 347.238,342.396 347.509,343.014L284.683,379.286C279.879,372.096 272.538,366.976 264.085,364.943ZM364.701,340.425C364.502,340.174 364.303,339.922 364.119,339.663C363.993,339.486 363.878,339.302 363.758,339.12C363.484,338.705 363.229,338.28 362.992,337.848C362.843,337.576 362.691,337.306 362.555,337.026C362.447,336.805 362.354,336.579 362.256,336.354C362.131,336.066 362.008,335.777 361.898,335.482C361.816,335.265 361.74,335.047 361.666,334.827C361.556,334.497 361.457,334.162 361.364,333.825C361.31,333.628 361.251,333.43 361.203,333.232C361.087,332.742 360.988,332.25 360.912,331.759C360.87,331.484 360.846,331.207 360.816,330.931C360.788,330.679 360.76,330.425 360.743,330.173C360.721,329.849 360.712,329.523 360.707,329.198C360.704,329.015 360.705,328.832 360.708,328.649C360.713,328.295 360.723,327.942 360.749,327.588C360.758,327.476 360.773,327.364 360.782,327.252C360.853,326.478 360.972,325.707 361.141,324.944C361.158,324.866 361.17,324.789 361.187,324.711C361.258,324.406 361.35,324.104 361.437,323.802C361.505,323.569 361.573,323.336 361.65,323.106C361.735,322.851 361.828,322.598 361.924,322.346C362.039,322.046 362.164,321.749 362.296,321.453C362.382,321.26 362.464,321.066 362.557,320.874C362.797,320.381 363.054,319.893 363.34,319.418C363.656,318.894 363.994,318.391 364.353,317.907C364.41,317.829 364.475,317.761 364.533,317.685C364.843,317.28 365.163,316.882 365.503,316.506C365.549,316.455 365.6,316.41 365.646,316.359C366.011,315.964 366.389,315.582 366.785,315.224C366.804,315.206 366.826,315.191 366.845,315.173C369.062,313.184 371.744,311.754 374.717,311.016C376.205,310.646 377.708,310.464 379.202,310.464C379.911,310.464 380.617,310.514 381.319,310.596C381.49,310.616 381.661,310.634 381.831,310.66C382.08,310.697 382.328,310.741 382.575,310.787C382.904,310.851 383.233,310.921 383.559,311.003C383.699,311.038 383.839,311.067 383.978,311.104C384.486,311.243 384.99,311.403 385.491,311.588C385.547,311.608 385.601,311.632 385.657,311.653C386.132,311.833 386.604,312.035 387.072,312.257C387.625,312.52 388.17,312.801 388.702,313.121C397.431,318.378 400.256,329.756 394.999,338.486C392.453,342.715 388.412,345.698 383.621,346.887C378.831,348.077 373.863,347.329 369.634,344.782C367.712,343.621 366.059,342.137 364.701,340.425ZM107.09,352.024C111.502,356.622 117.11,359.923 123.437,361.546C126.31,362.283 129.218,362.648 132.108,362.648C138.237,362.648 144.277,361.007 149.691,357.806C150.995,357.034 152.222,356.183 153.386,355.273L221.492,394.594C221.339,395.914 221.252,397.254 221.252,398.615C221.252,414.972 232.649,428.709 247.917,432.325L247.917,489.914L57.59,380.029L107.09,352.024ZM264.085,432.278C279.252,428.589 290.548,414.9 290.548,398.615C290.548,397.291 290.466,395.987 290.321,394.702L357.453,355.943C358.666,356.914 359.945,357.817 361.299,358.632C366.766,361.925 372.891,363.613 379.112,363.613C381.913,363.613 384.734,363.27 387.523,362.578C394.369,360.878 400.394,357.22 404.988,352.067L454.409,380.028L264.085,489.914L264.085,432.278ZM412.659,337.832C416.227,324.354 411.34,309.663 399.817,301.129L422.459,196.066C427.892,195.798 433.339,194.257 438.336,191.302C452.358,183.005 458.387,166.301 453.828,151.366L462.618,146.189L462.618,366.098L412.659,337.832ZM255.9,92.33C266.09,92.33 274.38,100.62 274.38,110.81C274.38,111.966 274.26,113.093 274.056,114.19C274.001,114.486 273.933,114.777 273.865,115.068C273.793,115.371 273.719,115.673 273.632,115.97C273.567,116.194 273.496,116.416 273.423,116.637C273.296,117.019 273.16,117.395 273.009,117.764C272.956,117.894 272.903,118.024 272.848,118.152C272.637,118.638 272.41,119.117 272.159,119.579C272.151,119.593 272.144,119.608 272.136,119.622C270.157,123.253 266.992,126.149 263.168,127.792C263.108,127.818 263.047,127.844 262.986,127.869C262.53,128.059 262.064,128.227 261.591,128.381C261.474,128.419 261.356,128.459 261.237,128.494C260.811,128.622 260.378,128.73 259.94,128.828C259.785,128.863 259.632,128.902 259.475,128.933C259.048,129.017 258.613,129.077 258.175,129.132C258.014,129.151 257.857,129.181 257.695,129.197C257.102,129.254 256.503,129.289 255.896,129.289C255.323,129.289 254.758,129.254 254.197,129.203C254.04,129.189 253.884,129.169 253.727,129.15C253.289,129.098 252.856,129.033 252.428,128.952C252.302,128.928 252.175,128.908 252.05,128.881C250.915,128.64 249.818,128.297 248.77,127.857C248.725,127.839 248.681,127.818 248.635,127.799C245.352,126.391 242.555,124.062 240.576,121.134L240.576,121.133C240.266,120.675 239.98,120.198 239.712,119.711C239.68,119.652 239.646,119.595 239.614,119.535C238.214,116.934 237.416,113.962 237.416,110.807C237.42,100.62 245.71,92.33 255.9,92.33ZM228.496,132.031C232.824,137.633 238.762,141.748 245.493,143.859C245.542,143.874 245.589,143.891 245.637,143.906C246.036,144.029 246.439,144.14 246.843,144.249C247.053,144.306 247.263,144.364 247.476,144.417C247.624,144.454 247.768,144.499 247.916,144.533L247.916,244.344L164.089,194.974C164.091,194.97 164.092,194.965 164.094,194.961C164.149,194.84 164.201,194.718 164.255,194.598C164.467,194.124 164.669,193.647 164.859,193.168C164.895,193.077 164.928,192.987 164.964,192.895C165.167,192.367 165.356,191.837 165.532,191.303C165.547,191.256 165.563,191.209 165.578,191.162C166.776,187.471 167.323,183.664 167.253,179.893C167.253,179.876 167.252,179.86 167.252,179.842C167.24,179.265 167.214,178.691 167.174,178.116C167.165,177.997 167.156,177.879 167.147,177.759C167.109,177.291 167.063,176.824 167.007,176.359C166.985,176.179 166.964,175.999 166.939,175.819C166.884,175.42 166.822,175.023 166.753,174.628C166.715,174.404 166.679,174.18 166.637,173.955C166.572,173.617 166.497,173.281 166.421,172.945C166.362,172.679 166.308,172.413 166.243,172.147C166.197,171.962 166.142,171.778 166.092,171.593C165.895,170.846 165.672,170.105 165.424,169.371C165.368,169.206 165.317,169.04 165.259,168.876C165.226,168.782 165.199,168.686 165.164,168.593L228.496,132.031ZM128.173,162.539C129.66,162.169 131.164,161.987 132.658,161.987C135.976,161.987 139.243,162.887 142.159,164.643C144.87,166.275 147.008,168.5 148.515,171.05C148.526,171.068 148.539,171.086 148.549,171.105C148.825,171.576 149.075,172.061 149.308,172.554C149.364,172.673 149.415,172.792 149.468,172.912C149.642,173.3 149.802,173.693 149.948,174.091C149.995,174.22 150.045,174.35 150.089,174.48C150.259,174.978 150.415,175.482 150.542,175.992C150.545,176.004 150.55,176.015 150.552,176.027C150.677,176.53 150.772,177.04 150.855,177.552C150.885,177.741 150.908,177.929 150.933,178.119C150.976,178.451 151.008,178.784 151.033,179.117C151.049,179.333 151.067,179.548 151.076,179.764C151.092,180.156 151.09,180.549 151.081,180.941C151.073,181.249 151.054,181.558 151.031,181.866C151.009,182.158 150.986,182.45 150.95,182.742C150.919,182.999 150.88,183.254 150.838,183.509C150.792,183.791 150.735,184.074 150.675,184.355C150.625,184.587 150.581,184.82 150.522,185.05C150.401,185.522 150.262,185.992 150.102,186.459C150.042,186.637 149.969,186.811 149.903,186.988C149.768,187.344 149.625,187.698 149.466,188.049C149.393,188.212 149.319,188.375 149.242,188.536C149.002,189.032 148.746,189.523 148.456,190.005C148.156,190.503 147.831,190.975 147.493,191.434C147.392,191.572 147.285,191.702 147.179,191.837C146.926,192.161 146.665,192.477 146.394,192.78C146.279,192.909 146.162,193.039 146.044,193.164C145.73,193.496 145.405,193.815 145.071,194.12C144.998,194.187 144.929,194.257 144.855,194.322C143.975,195.097 143.032,195.781 142.037,196.368C142.005,196.387 141.971,196.405 141.94,196.424C141.45,196.71 140.948,196.974 140.435,197.212C140.426,197.216 140.419,197.22 140.41,197.224C138.284,198.208 135.987,198.779 133.649,198.913C133.596,198.916 133.544,198.919 133.492,198.922C132.97,198.947 132.445,198.948 131.922,198.928C131.857,198.926 131.794,198.927 131.729,198.924C131.154,198.897 130.581,198.845 130.008,198.764C129.974,198.759 129.939,198.75 129.905,198.745C127.561,198.399 125.245,197.599 123.092,196.302C114.363,191.045 111.538,179.667 116.795,170.937C119.342,166.713 123.382,163.728 128.173,162.539Z" style="fill-rule:nonzero;"/>
    </g>
</svg>
