<?xml version='1.0' encoding='iso-8859-1'?>
<!-- Uploaded to: SVG Repo, www.svgrepo.com, Generator: SVG Repo Mixer Tools -->
<svg fill="#000000" height="800px" width="800px" version="1.1" xmlns="http://www.w3.org/2000/svg" viewBox="0 0 470 470" xmlns:xlink="http://www.w3.org/1999/xlink" enable-background="new 0 0 470 470">
  <g>
    <path d="m402.818,167.818c0-92.535-75.283-167.818-167.818-167.818s-167.818,75.283-167.818,167.818c-1.42109e-14,37.46 12.077,72.898 34.924,102.482l85.137,110.258v66.942c0,12.406 10.094,22.5 22.5,22.5h50.516c12.406,0 22.5-10.094 22.5-22.5v-66.941l85.136-110.258c22.846-29.584 34.923-65.023 34.923-102.483zm-200.576,217.682h65.516v27.25h-65.516v-27.25zm69.331-15h-73.146l-27.026-35h127.198l-27.026,35zm-11.315,84.5h-50.516c-4.136,0-7.5-3.364-7.5-7.5v-19.75h65.516v19.75c0,4.136-3.364,7.5-7.5,7.5zm49.923-134.5h-150.362l-45.841-59.367c-20.801-26.935-31.796-59.202-31.796-93.314 0-74.56 53.676-136.809 124.414-150.16-21.289,29.431-32.535,91.135-32.535,150.16 0,36.407 3.927,70.906 11.356,99.768l8.308,32.279c0.871,3.385 3.918,5.633 7.259,5.633 0.618,0 1.247-0.077 1.874-0.238 4.012-1.033 6.427-5.122 5.395-9.133l-8.308-32.28c-7.12-27.657-10.884-60.863-10.884-96.028 0-42.037 5.422-81.455 15.268-110.99 8.73-26.193 20.195-41.83 30.671-41.83 9.724,0 20.581,13.891 29.044,37.157 9.545,26.246 15.464,62.077 16.665,100.894 0.125,4.061 3.457,7.268 7.492,7.268 0.078,0 0.157-0.001 0.236-0.004 4.14-0.128 7.393-3.588 7.264-7.729-1.249-40.366-7.485-77.853-17.562-105.556-4.387-12.063-9.349-21.884-14.785-29.382 70.762,13.332 124.463,75.593 124.463,150.17 0,34.112-10.995,66.38-31.797,93.314l-45.839,59.368z"/>
    <path d="m288.434,175.322c-4.144-0.159-7.601,3.125-7.729,7.264-0.918,29.667-4.601,57.767-10.649,81.262l-8.31,32.283c-1.032,4.011 1.383,8.1 5.395,9.133 0.627,0.161 1.255,0.238 1.874,0.238 3.34,0 6.388-2.248 7.259-5.633l8.31-32.282c6.319-24.55 10.163-53.782 11.114-84.536 0.128-4.141-3.125-7.601-7.264-7.729z"/>
  </g>
</svg>