<?xml version="1.0" encoding="iso-8859-1"?>
<!-- Uploaded to: SVG Repo, www.svgrepo.com, Generator: SVG Repo Mixer Tools -->
<!DOCTYPE svg PUBLIC "-//W3C//DTD SVG 1.1//EN" "http://www.w3.org/Graphics/SVG/1.1/DTD/svg11.dtd">
<svg fill="#000000" height="800px" width="800px" version="1.1" id="Capa_1" xmlns="http://www.w3.org/2000/svg" xmlns:xlink="http://www.w3.org/1999/xlink" 
	 viewBox="0 0 459.291 459.291" xml:space="preserve">
<g id="XMLID_461_">
	<circle id="XMLID_470_" cx="239.164" cy="53.905" r="36.358"/>
	<path id="XMLID_521_" d="M243.471,404.114v34.126c0,11.626,9.425,21.052,21.052,21.052c11.627,0,21.052-9.425,21.052-21.052
		v-31.577h-30.128C251.184,406.663,247.134,405.747,243.471,404.114z"/>
	<path id="XMLID_536_" d="M375.084,304.535c0-5.014-4.065-9.079-9.079-9.079h-18.832c0-8.93,0-13.438,0-22.419
		c0-5.643-4.575-10.219-10.219-10.219h-8.732l-0.103-20.438l-0.499-99.221c-0.115-22.776-18.738-41.307-41.516-41.307
		c-3.51,0-73.539,0-77.443,0l-62.957-35.99l-28.28-56.202c-4.355-8.654-14.901-12.139-23.557-7.785
		c-8.654,4.355-12.141,14.902-7.785,23.557l30.656,60.923c1.55,3.079,3.972,5.634,6.965,7.344l68.566,39.197l0.008,305.344
		c0,11.626,9.425,21.052,21.052,21.052c11.627,0,21.052-9.425,21.052-21.052v-40.445c-5.223-5.327-8.453-12.617-8.453-20.65v-72.611
		c0-8.033,3.229-15.322,8.453-20.65c0-1.1,0-5.673,0-9.329c0-2.532,2.052-4.584,4.584-4.584c2.488,0,4.505,2.017,4.505,4.505
		c0,1.31,0,2.534,0,3.09c3.2-1.426,6.695-2.305,10.37-2.503c0-2.119-0.031-3.242,0.154-5.091
		c1.465-14.691,13.609-27.592,31.198-27.592v-99.091c0-2.027,1.643-3.671,3.671-3.671c2.027-0.001,3.672,1.642,3.672,3.67
		c0,0.016,0,0.032,0,0.048l0.498,99.044l0.103,20.438h-8.638c-5.644,0-10.219,4.575-10.219,10.219v0c0,8.982,0,13.492,0,22.419
		h-18.832c-5.014,0-9.079,4.065-9.079,9.079v72.611c0,5.014,4.065,9.079,9.079,9.079h110.558c5.014,0,9.079-4.065,9.079-9.079
		V304.535z M310.724,289.672c0.029,0,0.061,0,0.09,0c5.433-0.027,10.275-2.523,13.474-6.417h2.448v12.2h-32.02v-12.2h2.451
		C300.385,287.173,305.264,289.672,310.724,289.672z"/>
</g>
</svg>